<svg xmlns="http://www.w3.org/2000/svg" version="1.1" xmlns:xlink="http://www.w3.org/1999/xlink" xmlns:svgjs="http://svgjs.com/svgjs" width="1440" height="1280" preserveAspectRatio="none" viewBox="0 0 1440 1280"><g mask="url(&quot;#SvgjsMask1013&quot;)" fill="none"><rect width="1440" height="1280" x="0" y="0" fill="rgba(16, 23, 41, 1)"></rect><path d="M0 168C24.2 79.25 15.5 37.68 87.27 0C175.5 -46.32 203.63 0 320 0C480 0 480 0 640 0C745.26 0 780.15 -53.82 850.53 0C940.15 68.53 918.39 244.71 960 244.71C998.81 244.71 934.23 58.98 1011.36 0C1094.23 -63.37 1145.68 0 1280 0C1440 0 1520 -80 1600 0C1680 80 1600 160 1600 320C1600 480 1600 480 1600 640C1600 800 1600 800 1600 960C1600 1115.68 1622.72 1135.01 1600 1271.35C1596.06 1295.01 1573.62 1279.27 1546.67 1280C1413.62 1283.6 1413.34 1280 1280 1280C1249.23 1280 1247.15 1290.04 1218.46 1280C1087.15 1234.04 1080.1 1239.73 960 1168C812.2 1079.73 797.84 1080.93 682.67 960C637.84 912.93 668.36 832 640 832C608.62 832 581.52 889.1 563.2 960C523.65 1113.1 598.7 1182.06 524.26 1280C477.1 1342.06 422.13 1280 320 1280C160 1280 93.91 1346.09 0 1280C-66.09 1233.49 -41.23 1145 0 1054.81C31.92 985 146.29 1001.97 146.29 960C146.29 921.32 28.38 955.58 0 893.51C-44.77 795.58 0 766.76 0 640C0 480 0 480 0 320C0 244 -19.43 239.25 0 168" stroke="rgba(51, 121, 194, 0.58)" stroke-width="2"></path><path d="M960 480C923.7 480 861.54 578.69 861.54 640C861.54 673.57 913.6 669.77 960 669.77C981.65 669.77 997.65 661.45 997.65 640C997.65 566.56 991.76 480 960 480" stroke="rgba(51, 121, 194, 0.58)" stroke-width="2"></path><path d="M64 320C141.81 171.14 98.02 116.44 191.17 0C226.02 -43.56 255.59 0 320 0C480 0 480 0 640 0C640 0 640 0 640 0C735.38 160 830.77 169.44 830.77 320C830.77 434.97 733.17 423.65 640 531.06C594.39 583.65 597.41 586.18 553.22 640C437.41 781.06 462.04 882.41 320 920.82C185.43 957.21 111.69 887.62 0 789.61C-48.31 747.21 0 714.81 0 640C0 502.86 -24.87 490.06 0 365.71C7.13 330.06 46.23 354 64 320" stroke="rgba(51, 121, 194, 0.58)" stroke-width="2"></path><path d="M1073.9 320C1044.79 168.31 1042.66 104.75 1110.12 0C1145.71 -55.25 1195.06 0 1280 0C1382.68 0 1445.76 -62.54 1485.37 0C1547.09 97.46 1445.93 174.03 1482.67 320C1503.24 401.72 1571.11 376.58 1600 455.38C1629.77 536.58 1600 547.69 1600 640C1600 800 1600 800 1600 960C1600 1007.57 1627.7 1055.14 1600 1055.14C1543.89 1055.14 1500.17 1025.35 1432.38 960C1340.17 871.11 1349.02 857.42 1280 746.67C1249.3 697.42 1258.29 692.48 1232.94 640C1155.24 479.15 1106.2 488.31 1073.9 320" stroke="rgba(51, 121, 194, 0.58)" stroke-width="2"></path><path d="M860.44 960C860.44 912.01 902.37 855.81 960 855.81C1045.49 855.81 1146.67 913.91 1146.67 960C1146.67 1003.34 1048.4 1034.67 960 1034.67C905.28 1034.67 860.44 1001.44 860.44 960" stroke="rgba(51, 121, 194, 0.58)" stroke-width="2"></path><path d="M0 1202.96C129.51 1144.09 198.46 1108.1 320 1134.55C375.48 1146.62 354.04 1220.77 354.04 1280C354.04 1293.5 337.02 1280 320 1280C160 1280 128.95 1311.05 0 1280C-31.05 1272.53 -30.49 1216.82 0 1202.96" stroke="rgba(51, 121, 194, 0.58)" stroke-width="2"></path><path d="M320 274.29C298.51 274.29 295.06 125.76 295.06 0C295.06 -11.39 307.53 0 320 0C350.97 0 381.94 -24.76 381.94 0C381.94 112.39 341.95 274.29 320 274.29" stroke="rgba(51, 121, 194, 0.58)" stroke-width="2"></path><path d="M365.71 320C365.71 294.12 516.15 258.06 640 258.06C671.76 258.06 676.92 290.86 676.92 320C676.92 342.25 665.78 360.85 640 360.85C510.17 360.85 365.71 345.52 365.71 320" stroke="rgba(51, 121, 194, 0.58)" stroke-width="2"></path><path d="M1209.49 320C1184.99 166.33 1180.04 130.91 1208.89 0C1215.3 -29.09 1244.45 0 1280 0C1322.99 0 1358.64 -33.85 1365.97 0C1393.3 126.15 1379 166.08 1349.33 320C1336.01 389.11 1314.89 446.06 1280 446.06C1244.97 446.06 1220.55 389.36 1209.49 320" stroke="rgba(123, 28, 185, 0.4)" stroke-width="2"></path><path d="M0 556.19C131.58 431.54 205.33 313.83 320 336.84C414.14 355.73 417.63 497.85 417.63 640C417.63 708.2 386.37 750.29 320 757.55C177.55 773.14 140.43 737.3 0 685.71C-19.57 678.52 0 662.86 0 640C0 598.1 -28.42 583.12 0 556.19" stroke="rgba(123, 28, 185, 0.4)" stroke-width="2"></path><path d="M1536 640C1536 616.91 1577.67 609.23 1600 609.23C1609.67 609.23 1600 624.62 1600 640C1600 682.11 1614.18 724.21 1600 724.21C1582.18 724.21 1536 674.4 1536 640" stroke="rgba(123, 28, 185, 0.4)" stroke-width="2"></path></g><defs><mask id="SvgjsMask1013"><rect width="1440" height="1280" fill="#ffffff"></rect></mask></defs></svg>