<svg xmlns="http://www.w3.org/2000/svg" version="1.1" xmlns:xlink="http://www.w3.org/1999/xlink" xmlns:svgjs="http://svgjs.com/svgjs" width="1440" height="1280" preserveAspectRatio="none" viewBox="0 0 1440 1280"><g mask="url(&quot;#SvgjsMask1005&quot;)" fill="none"><rect width="1440" height="1280" x="0" y="0" fill="rgba(47, 79, 126, 1)"></rect><path d="M320 183.7C222.86 183.7 140.49 252.25 140.49 320C140.49 387.31 223.06 453.82 320 453.82C460.01 453.82 614.4 387.42 614.4 320C614.4 252.36 459.82 183.7 320 183.7" stroke="rgba(16, 23, 40, 1)" stroke-width="2"></path><path d="M960 256C870.33 256 746.67 298.43 746.67 320C746.67 340.76 857.13 340.65 960 340.65C973.8 340.65 980 332.7 980 320C980 290.38 987 256 960 256" stroke="rgba(55, 29, 95, 1)" stroke-width="2"></path><path d="M1192.73 0C1238.06 4.12 1237.89 10.71 1280 29.09C1441.53 99.6 1485.96 74.11 1600 177.78C1645.96 219.56 1600 248.89 1600 320C1600 384 1612.4 386.01 1600 448C1580.4 546.01 1536 551.97 1536 640C1536 678.44 1591.86 660.25 1600 700.95C1623.86 820.25 1600 830.47 1600 960C1600 1120 1676.14 1239 1600 1280C1516.14 1325.16 1447.15 1180.9 1280 1132.31C1127.15 1087.88 1110.64 1141.11 960 1093.95C835.44 1054.95 795.81 1062.03 729.6 960C648.51 835.05 691.68 800.91 665.4 640C646.88 526.62 657.06 411.43 640 411.43C622.74 411.43 613.53 524.98 596.76 640C573.53 799.26 545.18 807.72 560 960C566.8 1029.94 604.13 1019.87 640 1084.44C693.02 1179.87 737.78 1212.44 737.78 1280C737.78 1310.22 688.89 1280 640 1280C522.66 1280 517.69 1297.98 405.33 1280C357.69 1272.38 357.16 1228.8 320 1228.8C296.72 1228.8 313.2 1275.4 284.44 1280C153.2 1301 73.95 1348.27 0 1280C-68.27 1216.99 -29.09 1133.8 0 1017.44C10.91 973.8 80 983.56 80 960C80 939.5 9.14 965.88 0 929.32C-30.86 805.88 0 784.66 0 640C0 480 0 480 0 320C0 160 -80 80 0 0C80 -80 160 0 320 0C480 0 480 0 640 0C800 0 800 0 960 0C1076.37 0 1078.06 -10.42 1192.73 0" stroke="rgba(55, 29, 95, 1)" stroke-width="2"></path><path d="M320 35.56C282.27 16.42 243.2 9.32 243.2 0C243.2 -8.46 281.6 0 320 0C480 0 480 0 640 0C770 0 900 -44.44 900 0C900 56.2 778.36 192.81 640 201.29C488.36 210.59 480.67 117.06 320 35.56" stroke="rgba(16, 23, 40, 1)" stroke-width="2"></path><path d="M1105 320C1191.26 233.91 1188.14 150.3 1280 150.3C1383.33 150.3 1467.69 209.46 1495.38 320C1529.02 454.31 1373.9 500.3 1402.67 640C1426.21 754.27 1533.54 720.17 1600 827.94C1632.21 880.17 1600 893.97 1600 960C1600 1041.57 1641.6 1123.14 1600 1123.14C1529.17 1123.14 1481.37 1048.53 1375.14 960C1321.37 915.19 1342.88 864.95 1280 856.47C1135.31 836.95 1083.97 959.04 960 904C840.16 850.8 792.38 763.1 792.38 640C792.38 545.94 876.5 555.15 960 469.68C1032.81 395.15 1031.26 393.6 1105 320" stroke="rgba(55, 29, 95, 1)" stroke-width="2"></path><path d="M0 366.67C94.62 354.63 159.36 483.89 320 599.27C349.63 620.55 380.54 608.76 380.54 640C380.54 730.95 395.79 807.84 320 843.64C205.52 897.71 102.56 885 0 819.73C-57.44 783.18 0 729.87 0 640C0 503.34 -65.38 374.99 0 366.67" stroke="rgba(16, 23, 40, 1)" stroke-width="2"></path><path d="M0 1222.56C18.54 1222.56 62.22 1263.44 62.22 1280C62.22 1292.16 16.18 1294.93 0 1280C-14.93 1266.21 -12.57 1222.56 0 1222.56" stroke="rgba(55, 29, 95, 1)" stroke-width="2"></path><path d="M640 72.26C575.19 72.26 504.24 19.19 504.24 0C504.24 -16.94 572.12 0 640 0C686.66 0 733.33 -15.95 733.33 0C733.33 20.18 689.74 72.26 640 72.26" stroke="rgba(16, 23, 40, 1)" stroke-width="2"></path><path d="M1230 320C1230 287.81 1253.75 271.52 1280 271.52C1309.52 271.52 1341.54 284.93 1341.54 320C1341.54 442.51 1308.01 586.67 1280 586.67C1252.24 586.67 1230 445.39 1230 320" stroke="rgba(16, 23, 40, 1)" stroke-width="2"></path><path d="M0 533.33C47.71 533.33 150.59 593.48 150.59 640C150.59 681.88 52.94 710.14 0 710.14C-22.35 710.14 0 675.07 0 640C0 586.66 -27.58 533.33 0 533.33" stroke="rgba(16, 23, 40, 1)" stroke-width="2"></path><path d="M919.37 640C919.37 617.2 932.92 598.71 960 598.71C1081.23 598.71 1216 613.91 1216 640C1216 666.55 1075.22 704 960 704C926.9 704 919.37 669.84 919.37 640" stroke="rgba(16, 23, 40, 1)" stroke-width="2"></path><path d="M1591.35 960C1591.35 957.25 1597.13 954.92 1600 954.92C1601.45 954.92 1600 957.46 1600 960C1600 963.13 1601.6 966.27 1600 966.27C1597.27 966.27 1591.35 962.93 1591.35 960" stroke="rgba(16, 23, 40, 1)" stroke-width="2"></path></g><defs><mask id="SvgjsMask1005"><rect width="1440" height="1280" fill="#ffffff"></rect></mask></defs></svg>