<svg xmlns="http://www.w3.org/2000/svg" xmlns:xlink="http://www.w3.org/1999/xlink" width="500" zoomAndPan="magnify" viewBox="0 0 375 374.999991" height="500" preserveAspectRatio="xMidYMid meet" version="1.0"><defs><g/></defs><g fill="#e0a34e" fill-opacity="1"><g transform="translate(2.882817, 298.489606)"><g><path d="M 139.578125 -108.921875 C 159.171875 -78.253906 181.53125 -46.421875 206.65625 -13.421875 L 205.703125 -6.390625 C 183.335938 -1.492188 162.039062 1.910156 141.8125 3.828125 L 134.796875 0 C 113.066406 -37.257812 95.285156 -68.878906 81.453125 -94.859375 L 80.8125 -67.078125 L 83.359375 0 L 19.171875 0 L 22.359375 -60.6875 L 19.171875 -206.65625 L 84.328125 -206.65625 L 82.09375 -120.421875 L 121.6875 -184.296875 L 132.546875 -206.65625 L 200.265625 -206.65625 Z M 139.578125 -108.921875 "/></g></g></g><g fill="#e0a34e" fill-opacity="1"><g transform="translate(203.467199, 298.489606)"><g><path d="M 97.421875 -210.484375 C 117.648438 -210.484375 137.664062 -206.757812 157.46875 -199.3125 L 147.25 -147.25 L 138.296875 -143.40625 C 129.359375 -148.945312 120.523438 -153.3125 111.796875 -156.5 C 103.066406 -159.695312 96.039062 -161.296875 90.71875 -161.296875 C 85.8125 -161.296875 81.921875 -160.335938 79.046875 -158.421875 C 76.171875 -156.503906 74.734375 -153.953125 74.734375 -150.765625 C 74.734375 -146.710938 76.914062 -143.25 81.28125 -140.375 C 85.65625 -137.5 92.953125 -133.722656 103.171875 -129.046875 C 115.097656 -123.722656 124.890625 -118.769531 132.546875 -114.1875 C 140.210938 -109.613281 146.921875 -103.332031 152.671875 -95.34375 C 158.421875 -87.351562 161.296875 -77.503906 161.296875 -65.796875 C 161.296875 -52.804688 157.726562 -41.039062 150.59375 -30.5 C 143.46875 -19.957031 133.300781 -11.597656 120.09375 -5.421875 C 106.894531 0.742188 91.566406 3.828125 74.109375 3.828125 C 52.378906 3.828125 29.59375 -0.210938 5.75 -8.296875 L 15.015625 -63.875 L 21.40625 -67.71875 C 31.195312 -60.257812 41.679688 -54.347656 52.859375 -49.984375 C 64.035156 -45.617188 73.351562 -43.4375 80.8125 -43.4375 C 86.769531 -43.4375 91.078125 -44.445312 93.734375 -46.46875 C 96.398438 -48.5 97.734375 -51.003906 97.734375 -53.984375 C 97.734375 -58.453125 95.441406 -62.226562 90.859375 -65.3125 C 86.285156 -68.40625 78.890625 -72.1875 68.671875 -76.65625 C 56.960938 -81.769531 47.328125 -86.613281 39.765625 -91.1875 C 32.203125 -95.769531 25.648438 -102.050781 20.109375 -110.03125 C 14.578125 -118.019531 11.8125 -127.867188 11.8125 -139.578125 C 11.8125 -152.992188 15.429688 -165.078125 22.671875 -175.828125 C 29.910156 -186.585938 40.023438 -195.050781 53.015625 -201.21875 C 66.003906 -207.394531 80.804688 -210.484375 97.421875 -210.484375 Z M 97.421875 -210.484375 "/></g></g></g></svg>